<svg viewBox="0 0 16 16" fill="#ffffff" xmlns="http://www.w3.org/2000/svg" id="Scales-Line--Streamline-Remix" height="23" width="23">
  <desc>
    Scales Line Streamline Icon: https://streamlinehq.com
  </desc>
  <path d="M8.665333333333333 1.3333333333333333v0.6666666666666666h4.666666666666666v1.3333333333333333h-4.666666666666666v9.333333333333332h2.6666666666666665v1.3333333333333333H4.665366666666666v-1.3333333333333333H7.331999999999999V3.333333333333333H2.6653666666666664V2H7.331999999999999V1.3333333333333333h1.3333333333333333ZM3.3320333333333334 4.228766666666666l1.8856133333333331 1.8856133333333331C5.70022 6.596953333333333 5.9986999999999995 7.2636 5.9986999999999995 8c0 1.4727333333333332 -1.1939066666666664 2.6666666666666665 -2.6666666666666665 2.6666666666666665S0.6653646666666666 9.472733333333332 0.6653646666666666 8c0 -0.7363999999999999 0.2984753333333333 -1.4030466666666666 0.7810486666666666 -1.8856199999999999l1.8856199999999999 -1.8856133333333331Zm9.3333 0 1.8856666666666666 1.8856133333333331C15.033533333333333 6.596953333333333 15.332 7.2636 15.332 8c0 1.4727333333333332 -1.1938666666666666 2.6666666666666665 -2.6666666666666665 2.6666666666666665 -1.4727333333333332 0 -2.6666666666666665 -1.1939333333333333 -2.6666666666666665 -2.6666666666666665 0 -0.7363999999999999 0.2985333333333333 -1.4030466666666666 0.7810666666666666 -1.8856199999999999l1.8855999999999997 -1.8856133333333331ZM3.3320333333333334 6.114379999999999 2.38922 7.0572c-0.2493 0.24926666666666666 -0.39052 0.5831999999999999 -0.39052 0.9427999999999999 0 0.7363999999999999 0.5969533333333332 1.3333333333333333 1.3333333333333333 1.3333333333333333s1.3333333333333333 -0.5969333333333333 1.3333333333333333 -1.3333333333333333c0 -0.3596 -0.14122666666666667 -0.6935333333333333 -0.3905266666666667 -0.9427999999999999L3.3320333333333334 6.114379999999999Zm9.3333 0 -0.9427999999999999 0.94282c-0.24926666666666666 0.24926666666666666 -0.3905333333333333 0.5831999999999999 -0.3905333333333333 0.9427999999999999 0 0.7363999999999999 0.597 1.3333333333333333 1.3333333333333333 1.3333333333333333 0.7363999999999999 0 1.3333333333333333 -0.5969333333333333 1.3333333333333333 -1.3333333333333333 0 -0.3596 -0.1412 -0.6935333333333333 -0.39046666666666663 -0.9427999999999999L12.665333333333333 6.114379999999999Z" stroke-width="0.6667"></path>
</svg>