<svg id="svg" fill="#fff" stroke="#fff" width="29" height="29" version="1.1" viewBox="144 144 512 512" xmlns="http://www.w3.org/2000/svg">
    <g id="IconSvg_bgCarrier" stroke-width="0"></g>
    <g id="IconSvg_tracerCarrier" stroke-linecap="round" stroke-linejoin="round" stroke="#CCCCCC" stroke-width="0">
      <g xmlns="http://www.w3.org/2000/svg">
  <path d="m628.29 281.92h-48.277l-6.9023-48.352c-0.5625-3.8711-3.8789-6.7539-7.7969-6.7539h-31.488c-3.9219 0-7.2344 2.8828-7.793 6.7539l-6.9062 48.352h-238.25l-6.9023-48.352c-0.55859-3.8711-3.875-6.7539-7.793-6.7539h-31.488c-3.9219 0-7.2344 2.8828-7.793 6.7539l-6.9062 48.352h-48.277c-4.3438 0-7.8711 3.5273-7.8711 7.8711v291.27c0 4.3438 3.5273 7.8711 7.8711 7.8711h456.58c4.3438 0 7.8711-3.5273 7.8711-7.8711v-291.27c0-4.3438-3.5273-7.8711-7.8711-7.8711zm-87.641-39.359h17.84l5.6211 39.359h-29.078zm-299.14 0h17.84l5.6211 39.359h-29.078zm378.9 330.62h-440.83v-275.52h440.83z"></path>
  <path d="m281.92 344.89h-23.617v-23.617c0-4.3438-3.5273-7.8711-7.8711-7.8711s-7.8711 3.5273-7.8711 7.8711v23.617h-23.617c-4.3438 0-7.8711 3.5273-7.8711 7.8711s3.5273 7.8711 7.8711 7.8711h23.617v23.617c0 4.3438 3.5273 7.8711 7.8711 7.8711s7.8711-3.5273 7.8711-7.8711v-23.617h23.617c4.3438 0 7.8711-3.5273 7.8711-7.8711s-3.5273-7.8711-7.8711-7.8711z"></path>
  <path d="m512.18 352.77c0 4.3438 3.5273 7.8711 7.8711 7.8711h62.977c4.3438 0 7.8711-3.5273 7.8711-7.8711s-3.5273-7.8711-7.8711-7.8711h-62.977c-4.3438 0-7.8711 3.5273-7.8711 7.8711z"></path>
 </g>

      </g>
     <g id="IconSvg_iconCarrier">
      <g xmlns="http://www.w3.org/2000/svg">
  <path d="m628.29 281.92h-48.277l-6.9023-48.352c-0.5625-3.8711-3.8789-6.7539-7.7969-6.7539h-31.488c-3.9219 0-7.2344 2.8828-7.793 6.7539l-6.9062 48.352h-238.25l-6.9023-48.352c-0.55859-3.8711-3.875-6.7539-7.793-6.7539h-31.488c-3.9219 0-7.2344 2.8828-7.793 6.7539l-6.9062 48.352h-48.277c-4.3438 0-7.8711 3.5273-7.8711 7.8711v291.27c0 4.3438 3.5273 7.8711 7.8711 7.8711h456.58c4.3438 0 7.8711-3.5273 7.8711-7.8711v-291.27c0-4.3438-3.5273-7.8711-7.8711-7.8711zm-87.641-39.359h17.84l5.6211 39.359h-29.078zm-299.14 0h17.84l5.6211 39.359h-29.078zm378.9 330.62h-440.83v-275.52h440.83z"></path>
  <path d="m281.92 344.89h-23.617v-23.617c0-4.3438-3.5273-7.8711-7.8711-7.8711s-7.8711 3.5273-7.8711 7.8711v23.617h-23.617c-4.3438 0-7.8711 3.5273-7.8711 7.8711s3.5273 7.8711 7.8711 7.8711h23.617v23.617c0 4.3438 3.5273 7.8711 7.8711 7.8711s7.8711-3.5273 7.8711-7.8711v-23.617h23.617c4.3438 0 7.8711-3.5273 7.8711-7.8711s-3.5273-7.8711-7.8711-7.8711z"></path>
  <path d="m512.18 352.77c0 4.3438 3.5273 7.8711 7.8711 7.8711h62.977c4.3438 0 7.8711-3.5273 7.8711-7.8711s-3.5273-7.8711-7.8711-7.8711h-62.977c-4.3438 0-7.8711 3.5273-7.8711 7.8711z"></path>
 </g>

      </g>
      </svg>