<svg xmlns="http://www.w3.org/2000/svg" fill="none" viewBox="0 0 24 24" id="Blur-Medium--Streamline-Outlined-Material" height="24" width="24">
  <desc>
    Blur Medium Streamline Icon: https://streamlinehq.com
  </desc>
  <path fill="#ffffff" d="M15 17H6.25v-1.5h5.175c-0.38385 -0.381 -0.69235 -0.80125 -0.9255 -1.26075 -0.233 -0.4595 -0.38285 -0.9559 -0.4495 -1.48925H4.5v-1.5h5.551c0.08265 -0.53335 0.24065 -1.02915 0.474 -1.4875 0.23335 -0.45835 0.53335 -0.87915 0.9 -1.2625H4v-1.5h11c1.38335 0 2.5625 0.4875 3.5375 1.4625C19.5125 9.4375 20 10.61665 20 12s-0.4875 2.5625 -1.4625 3.5375C17.5625 16.5125 16.38335 17 15 17Zm-0.006 -1.5c0.97065 0 1.79765 -0.33965 2.481 -1.019 0.68335 -0.6795 1.025 -1.5045 1.025 -2.475 0 -0.97065 -0.33965 -1.79765 -1.019 -2.481 -0.6795 -0.68335 -1.5045 -1.025 -2.475 -1.025 -0.97065 0 -1.79765 0.33965 -2.481 1.019 -0.68335 0.6795 -1.025 1.5045 -1.025 2.475 0 0.97065 0.33965 1.79765 1.019 2.481 0.6795 0.68335 1.5045 1.025 2.475 1.025ZM4 17v-1.5h1.5v1.5H4Z" stroke-width="0.5"></path>
</svg>