<svg xmlns="http://www.w3.org/2000/svg" fill="none" viewBox="0 0 24 24" height="24" width="24">
  <g id="Arrow-Through-Elipse-Left-Fill">
    <path id="Vector" fill="#ffffff" d="M14.5 3c0.8113 0 1.4005 0.52414 1.7773 1.03418 0.3914 0.52967 0.7022 1.23252 0.9454 2.01074 0.2647 0.84719 0.4675 1.8514 0.6005 2.95508h-2.0136c-0.1197 -0.8996 -0.2901 -1.69908 -0.4961 -2.3584 -0.2092 -0.66949 -0.4377 -1.13897 -0.6446 -1.41894 -0.0729 -0.09875 -0.1305 -0.15529 -0.1689 -0.18848 -0.0384 0.03319 -0.096 0.08973 -0.1689 0.18848 -0.2069 0.27997 -0.4354 0.74945 -0.6446 1.41894C13.2719 7.96867 13 9.86335 13 12c0 2.1367 0.2719 4.0313 0.6865 5.3584 0.2092 0.6695 0.4377 1.139 0.6446 1.4189 0.0726 0.0984 0.1305 0.1543 0.1689 0.1875 0.0384 -0.0332 0.0963 -0.0891 0.1689 -0.1875 0.2069 -0.2799 0.4354 -0.7494 0.6446 -1.4189 0.206 -0.6593 0.3764 -1.4588 0.4961 -2.3584h2.0136c-0.133 1.1037 -0.3358 2.1079 -0.6005 2.9551 -0.2432 0.7782 -0.554 1.481 -0.9454 2.0107C15.9005 20.4759 15.3113 21 14.5 21s-1.4005 -0.5241 -1.7773 -1.0342c-0.3914 -0.5297 -0.7022 -1.2325 -0.9454 -2.0107 -0.4175 -1.3363 -0.6859 -3.0624 -0.7568 -4.9551H5.41406l3.79297 3.793 -1.41406 1.414 -5.5 -5.5 -0.06641 -0.0732C2.08073 12.4558 2 12.2321 2 12c0 -0.2652 0.10543 -0.5195 0.29297 -0.707l5.5 -5.50003 1.41406 1.41406L5.41406 11h5.60644c0.0709 -1.89268 0.3393 -3.61882 0.7568 -4.95508 0.2432 -0.77822 0.554 -1.48107 0.9454 -2.01074C13.0995 3.52414 13.6887 3 14.5 3M22 13h-7v-2h7z" stroke-width="1"></path>
  </g>
</svg>