<svg xmlns="http://www.w3.org/2000/svg" fill="none" viewBox="0 0 24 24" height="24" width="24">
  <g id="Electric-Bolt">
    <path id="Union" fill="#000000" d="m17.4484 3.31641 -2.1358 6.40625 4.3663 0.79394 0.1396 0.0352c0.3167 0.1062 0.5633 0.3659 0.6494 0.6953 0.0983 0.3764 -0.0312 0.7756 -0.331 1.0234l-11.50004 9.5L8.35952 22H6.11245l0.43945 -1.3164 2.13477 -6.4072 -4.36524 -0.793c-0.3826 -0.0696 -0.69073 -0.3542 -0.78906 -0.7305 -0.09821 -0.3763 0.03127 -0.7756 0.33105 -1.0234L15.3634 2.22949 15.6408 2h2.247zM6.79409 11.9004l3.38481 0.6162 1.1347 0.2061 -0.3652 1.0937 -1.58791 4.7627 7.84471 -6.4805 -3.3838 -0.6152 -1.1347 -0.2061 0.3652 -1.0937 1.5869 -4.76368z" stroke-width="1"></path>
  </g>
</svg>