<svg id="Calls-Incoming--Streamline-Carbon" xmlns="http://www.w3.org/2000/svg" viewBox="0 0 16 16" height="24" width="24">
  <desc>
    Calls Incoming Streamline Icon: https://streamlinehq.com
  </desc>
  <defs></defs>
  <path d="M13 6c-1.10455 0 -2 0.8954 -2 2s0.89545 2 2 2 2 -0.89545 2 -2 -0.8954 -2 -2 -2Zm0 3c-0.5514 0 -1 -0.4486 -1 -1s0.4486 -1 1 -1 1 0.4486 1 1 -0.4486 1 -1 1Z" fill="#ffffff" stroke-width="0.5"></path>
  <path d="m7.5 10 -0.70715 0.70705L8.0858 12H3.90785C3.7008 11.41945 3.151 11 2.5 11c-0.82715 0 -1.5 0.67285 -1.5 1.5s0.67285 1.5 1.5 1.5c0.651 0 1.2008 -0.41945 1.40785 -1h4.178l-1.29295 1.29295L7.50005 15l2.5 -2.5 -2.5 -2.5ZM2.5 13c-0.27575 0 -0.5 -0.22435 -0.5 -0.5s0.22425 -0.5 0.5 -0.5 0.5 0.22435 0.5 0.5 -0.22425 0.5 -0.5 0.5Z" fill="#ffffff" stroke-width="0.5"></path>
  <path d="m7.5 2 -0.70715 0.70705L8.0858 4H3.90785C3.7008 3.41945 3.151 3 2.5 3 1.67285 3 1 3.67285 1 4.5s0.67285 1.5 1.5 1.5c0.651 0 1.2008 -0.41945 1.40785 -1h4.178l-1.29295 1.29295L7.50005 7l2.5 -2.5 -2.5 -2.5ZM2.5 5c-0.27575 0 -0.5 -0.22435 -0.5 -0.5s0.22425 -0.5 0.5 -0.5 0.5 0.22435 0.5 0.5 -0.22425 0.5 -0.5 0.5Z" fill="#ffffff" stroke-width="0.5"></path>
  <path id="_Transparent_Rectangle_" d="M0 0h16v16H0Z" fill="none" stroke-width="0.5"></path>
</svg>