<svg xmlns="http://www.w3.org/2000/svg" fill="none" viewBox="0 0 24 24" id="Humidity-Percentage--Streamline-Outlined-Material" height="24" width="24">
  <desc>
    Humidity Percentage Streamline Icon: https://streamlinehq.com
  </desc>
  <path fill="#ffffff" d="M14.503 17.75c0.348 0 0.64285 -0.12185 0.8845 -0.3655 0.24165 -0.24365 0.3625 -0.5395 0.3625 -0.8875s-0.12185 -0.64285 -0.3655 -0.8845c-0.24365 -0.24165 -0.5395 -0.3625 -0.8875 -0.3625s-0.64285 0.12185 -0.8845 0.3655c-0.24165 0.24365 -0.3625 0.5395 -0.3625 0.8875s0.12185 0.64285 0.3655 0.8845c0.24365 0.24165 0.5395 0.3625 0.8875 0.3625ZM9.45 17.6l6.15 -6.15 -1.05 -1.05 -6.15 6.15 1.05 1.05Zm0.053 -4.85c0.348 0 0.64285 -0.12185 0.8845 -0.3655 0.24165 -0.24365 0.3625 -0.5395 0.3625 -0.8875s-0.12185 -0.64285 -0.3655 -0.8845c-0.24365 -0.24165 -0.5395 -0.3625 -0.8875 -0.3625s-0.64285 0.12185 -0.8845 0.3655c-0.24165 0.24365 -0.3625 0.5395 -0.3625 0.8875s0.12185 0.64285 0.3655 0.8845c0.24365 0.24165 0.5395 0.3625 0.8875 0.3625ZM12 22c-2.28335 0 -4.1875 -0.78335 -5.7125 -2.35C4.7625 18.08335 4 16.13335 4 13.8c0 -1.66665 0.6625 -3.47915 1.9875 -5.4375C7.3125 6.40415 9.31665 4.283335 12 2c2.68335 2.283335 4.6875 4.40415 6.0125 6.3625C19.3375 10.32085 20 12.13335 20 13.8c0 2.33335 -0.7625 4.28335 -2.2875 5.85C16.1875 21.21665 14.28335 22 12 22Zm0 -1.5c1.86665 0 3.41665 -0.6375 4.65 -1.9125 1.23335 -1.275 1.85 -2.8735 1.85 -4.7955 0 -1.31135 -0.55415 -2.8045 -1.6625 -4.4795C15.72915 7.6375 14.11665 5.86665 12 4c-2.11665 1.86665 -3.72915 3.6375 -4.8375 5.3125C6.05415 10.9875 5.5 12.48065 5.5 13.792c0 1.922 0.61665 3.5205 1.85 4.7955C8.58335 19.8625 10.13335 20.5 12 20.5Z" stroke-width="0.5"></path>
</svg>