<svg xmlns="http://www.w3.org/2000/svg" fill="none" viewBox="0 0 24 24" id="Water-Ph--Streamline-Outlined-Material" height="24" width="24">
  <desc>
    Water Ph Streamline Icon: https://streamlinehq.com
  </desc>
  <path fill="#ffffff" d="M9.5 21.975c-2.16665 -0.13335 -3.95835 -0.96665 -5.375 -2.5C2.708335 17.94165 2 16.05 2 13.8c0 -1.66665 0.6625 -3.47915 1.9875 -5.4375C5.3125 6.40415 7.31665 4.283335 10 2c2.68335 2.283335 4.6875 4.40415 6.0125 6.3625C17.3375 10.32085 18 12.13335 18 13.8v0.35c0 0.11665 -0.00835 0.23335 -0.025 0.35h-1.5c0.01665 -0.11665 0.025 -0.23335 0.025 -0.35v-0.35c0 -1.31665 -0.55415 -2.8125 -1.6625 -4.4875C13.72915 7.6375 12.11665 5.86665 10 4c-2.11665 1.86665 -3.72915 3.6375 -4.8375 5.3125C4.054165 10.9875 3.5 12.48335 3.5 13.8c0 1.81265 0.566665 3.345 1.7 4.597 1.13335 1.252 2.56665 1.94465 4.3 2.078v1.5Zm1.5 0.025V16h3.8c0.33335 0 0.61665 0.11665 0.85 0.35 0.23335 0.23335 0.35 0.51665 0.35 0.85v1.6c0 0.33335 -0.11665 0.61665 -0.35 0.85 -0.23335 0.23335 -0.51665 0.35 -0.85 0.35h-2.6v2H11Zm5.95 0V16h1.2v2.225h2.7V16h1.2v6h-1.2v-2.575h-2.7V22h-1.2Zm-4.75 -3.2h2.6v-1.6h-2.6v1.6Z" stroke-width="0.5"></path>
</svg>