<svg xmlns="http://www.w3.org/2000/svg" fill="none" viewBox="0 0 24 24" height="24" width="24">
  <g id="Watch-Pulse-Alt-Fill">
    <path id="Vector" fill="#ffffff" d="M15 1c0.4714 0 0.8786 0.32921 0.9775 0.79004L16.5586 4.5H18.5c0.5523 0 1 0.44772 1 1v13c0 0.5523 -0.4477 1 -1 1h-1.9414l-0.5811 2.71c-0.0989 0.4608 -0.5061 0.79 -0.9775 0.79H9c-0.47138 0 -0.87856 -0.3292 -0.97754 -0.79l-0.58105 -2.71H5.5c-0.55228 0 -1 -0.4477 -1 -1v-13c0 -0.55228 0.44772 -1 1 -1h1.94141l0.58105 -2.70996 0.02149 -0.08399C8.17169 1.28969 8.55776 1 9 1zm-3.6055 13.9473c-0.1525 0.3049 -0.45 0.5109 -0.789 0.5468 -0.3392 0.036 -0.67371 -0.1028 -0.88675 -0.3691L8.01855 13H6.5v4.5h11V13H15c-0.3038 0 -0.5915 -0.1378 -0.7812 -0.375l-1.0235 -1.2793zM6.5 11h2c0.30378 0 0.59148 0.1378 0.78125 0.375l1.02345 1.2793 1.8008 -3.60157 0.0634 -0.10937c0.1637 -0.24445 0.4288 -0.40601 0.7256 -0.4375 0.3392 -0.03593 0.6737 0.10284 0.8867 0.36914L15.4814 11H17.5V6.5h-11z" stroke-width="1"></path>
  </g>
</svg>