<svg xmlns="http://www.w3.org/2000/svg" fill="none" viewBox="0 0 24 24" height="24" width="24">
  <g id="Hydro-Energy">
    <path id="Vector" fill="#ffffff" d="M11.5205 2.12221c0.3481 -0.19033 0.7837 -0.15829 1.1025 0.09571l0.001 0.00097 0.002 0.00098c0.0013 0.00107 0.0027 0.00315 0.0049 0.00488 0.0043 0.00349 0.0109 0.00755 0.0185 0.01367 0.0153 0.01235 0.0367 0.03091 0.0645 0.05372 0.0554 0.04562 0.1351 0.11193 0.2353 0.19726 0.2006 0.17088 0.485 0.41838 0.8242 0.73242 0.6774 0.62699 1.5822 1.52354 2.4903 2.59864C18.0368 7.91977 20 10.9083 20 14.0001c0 4.5093 -3.5895 8 -8 8 -4.41049 0 -8 -3.4907 -8 -8 0 -3.0918 1.96319 -6.08033 3.73633 -8.17964 0.90807 -1.0751 1.81288 -1.97165 2.49027 -2.59864 0.3392 -0.31404 0.6236 -0.56154 0.8242 -0.73242 0.1002 -0.08533 0.1799 -0.15164 0.2353 -0.19726 0.0278 -0.02281 0.0492 -0.04137 0.0645 -0.05372 0.0076 -0.00612 0.0142 -0.01018 0.0185 -0.01367 0.0022 -0.00173 0.0036 -0.00381 0.0049 -0.00488l0.002 -0.00098 0.001 -0.00097zm0.0654 2.56739c-0.6351 0.58786 -1.4804 1.42517 -2.32223 2.42187C7.53693 9.15593 6 11.6674 6 14.0001c0 3.3892 2.6785 6 6 6s6 -2.6108 6 -6c0 -2.3327 -1.5369 -4.84417 -3.2637 -6.88863 -0.8418 -0.9967 -1.6871 -1.83401 -2.3222 -2.42187 -0.1512 -0.13994 -0.2904 -0.26519 -0.4141 -0.375 -0.1237 0.10981 -0.2629 0.23506 -0.4141 0.375m0.9141 7.3105h3l-4 5.5v-3.5h-3l4 -5.49996z" stroke-width="1"></path>
  </g>
</svg>