<svg xmlns="http://www.w3.org/2000/svg" fill="none" viewBox="0 0 24 24" height="24" width="24">
  <g id="Manufacturing-Fill">
    <path id="Union" fill="#ffffff" d="M17.3369 10.8496c0.4607 0.1821 0.8877 0.4302 1.2695 0.7334l2.3311 -0.665 1.25 2.165 -1.7422 1.6826c0.0353 0.2398 0.0547 0.4849 0.0547 0.7344 0 0.2492 -0.0195 0.494 -0.0547 0.7334l1.7422 1.6836 -1.25 2.166 -2.3311 -0.667c-0.3818 0.3033 -0.8088 0.5512 -1.2695 0.7334L16.75 22.5h-2.5l-0.5879 -2.3506c-0.4606 -0.1822 -0.8878 -0.4301 -1.2695 -0.7334l-2.3301 0.667 -1.25 -2.166 1.7412 -1.6836c-0.0352 -0.2394 -0.0537 -0.4842 -0.0537 -0.7334 0 -0.2495 0.0184 -0.4947 0.0537 -0.7344L8.8125 13.083l1.25 -2.165 2.3301 0.665c0.3817 -0.3032 0.8089 -0.5512 1.2695 -0.7334L14.25 8.5h2.5zM15.5 13c-1.3807 0 -2.5 1.1193 -2.5 2.5s1.1193 2.5 2.5 2.5 2.5 -1.1193 2.5 -2.5 -1.1193 -2.5 -2.5 -2.5M7.65039 3c0.19988 0.08329 0.3876 0.17108 0.5625 0.2627 0.17482 0.09159 0.35398 0.20373 0.53711 0.33691l1.4502 -0.44922 1 1.69922 -1.1504 1c0.0333 0.21667 0.0498 0.43372 0.0498 0.65039s-0.0165 0.43372 -0.0498 0.65039l1.1504 1 -1 1.69922L8.75 9.40039c-0.18313 0.13318 -0.36229 0.24532 -0.53711 0.33691 -0.1749 0.09162 -0.36262 0.17941 -0.5625 0.2627l-0.30078 1.5h-2L5.0498 10c-0.19993 -0.08331 -0.38754 -0.17105 -0.5625 -0.2627 -0.17482 -0.09159 -0.35396 -0.20374 -0.5371 -0.33691L2.5 9.84961l-1 -1.69922 1.15039 -1c-0.03333 -0.21667 -0.05078 -0.43372 -0.05078 -0.65039s0.01745 -0.43372 0.05078 -0.65039l-1.15039 -1 1 -1.69922 1.4502 0.44922c0.18314 -0.13317 0.36228 -0.24532 0.5371 -0.33691 0.17496 -0.09165 0.36257 -0.17939 0.5625 -0.2627l0.29981 -1.5h2zM6.34961 4.5c-0.54983 0.00009 -1.02054 0.19632 -1.41211 0.58789 -0.39154 0.39163 -0.58789 0.8622 -0.58789 1.41211s0.19635 1.02048 0.58789 1.41211c0.39157 0.39157 0.86228 0.5878 1.41211 0.58789 0.55 0 1.02142 -0.19622 1.41309 -0.58789 0.39147 -0.39161 0.58691 -0.86225 0.58691 -1.41211s-0.19544 -1.0205 -0.58691 -1.41211C7.37103 4.69622 6.89961 4.5 6.34961 4.5" stroke-width="1"></path>
  </g>
</svg>