<svg id="svg" fill="#ffffff" stroke="#ffffff" width="18" height="18" version="1.1" viewBox="144 144 512 512" xmlns="http://www.w3.org/2000/svg">
    <g id="IconSvg_bgCarrier" stroke-width="0"></g>
    <g id="IconSvg_tracerCarrier" stroke-linecap="round" stroke-linejoin="round" stroke="#CCCCCC" stroke-width="0">
      <path xmlns="http://www.w3.org/2000/svg" d="m636.16 297.24c4.3516 0 7.8711-3.5195 7.8711-7.8711v-63.254c0-4.3516-3.5195-7.8711-7.8711-7.8711h-109.08v-54.965c0-4.3516-3.5195-7.8711-7.8711-7.8711h-193.43c-4.3438 0-7.8711 3.5195-7.8711 7.8711v54.961l-109.08 0.003907c-4.3438 0-7.8711 3.5195-7.8711 7.8711v63.25c0 4.3516 3.5273 7.8711 7.8711 7.8711h68.109l-65.574 223.79c-31.043 3.0273-55.391 29.258-55.391 61.074 0 33.844 27.535 61.379 61.371 61.379 33.844 0 61.379-27.535 61.379-61.379 0-30.348-22.16-55.547-51.137-60.441l65.754-224.41h67.441v224.05c-30.125 3.8828-53.5 29.637-53.5 60.805 0 33.844 27.535 61.379 61.371 61.379 22.953 0 42.973-12.691 53.5-31.402 10.523 18.711 30.551 31.402 53.508 31.402 22.953 0 42.973-12.691 53.508-31.402 10.523 18.711 30.543 31.402 53.5 31.402 33.844 0 61.379-27.535 61.379-61.379 0-31.164-23.379-56.922-53.508-60.805l-0.007812-224.05zm-373.19 284.86c0 25.16-20.477 45.633-45.633 45.633-25.16 0-45.625-20.473-45.625-45.633s20.469-45.625 45.625-45.625c25.16 0 45.633 20.465 45.633 45.625zm70.676-410.94h177.68v47.09h-177.68zm-116.95 62.832h107.03c0.66797 0.1875 1.332 0.41797 2.0547 0.41797h193.42c0.73047 0 1.3867-0.22656 2.0547-0.41797h107.04v47.508h-411.6zm251.09 63.254v224.05c-19.602 2.5273-36.328 14.305-45.633 30.836-9.2969-16.531-26.023-28.309-45.625-30.836l-0.003906-224.05zm-99.133 330.49c-25.16 0-45.625-20.477-45.625-45.633 0-25.16 20.469-45.625 45.625-45.625 25.16 0 45.625 20.469 45.625 45.625 0 25.16-20.465 45.633-45.625 45.633zm107 0c-25.16 0-45.633-20.477-45.633-45.633 0-25.16 20.477-45.625 45.633-45.625 25.16 0 45.633 20.469 45.633 45.625 0 25.16-20.465 45.633-45.633 45.633zm152.64-45.633c0 25.16-20.477 45.633-45.633 45.633-25.16 0-45.625-20.477-45.625-45.633 0-25.16 20.469-45.625 45.625-45.625s45.633 20.465 45.633 45.625zm-53.508-60.812c-19.602 2.5273-36.328 14.305-45.625 30.836-9.3047-16.531-26.023-28.309-45.633-30.836l-0.003907-224.04h91.262z"></path>

      </g>
     <g id="IconSvg_iconCarrier">
      <path xmlns="http://www.w3.org/2000/svg" d="m636.16 297.24c4.3516 0 7.8711-3.5195 7.8711-7.8711v-63.254c0-4.3516-3.5195-7.8711-7.8711-7.8711h-109.08v-54.965c0-4.3516-3.5195-7.8711-7.8711-7.8711h-193.43c-4.3438 0-7.8711 3.5195-7.8711 7.8711v54.961l-109.08 0.003907c-4.3438 0-7.8711 3.5195-7.8711 7.8711v63.25c0 4.3516 3.5273 7.8711 7.8711 7.8711h68.109l-65.574 223.79c-31.043 3.0273-55.391 29.258-55.391 61.074 0 33.844 27.535 61.379 61.371 61.379 33.844 0 61.379-27.535 61.379-61.379 0-30.348-22.16-55.547-51.137-60.441l65.754-224.41h67.441v224.05c-30.125 3.8828-53.5 29.637-53.5 60.805 0 33.844 27.535 61.379 61.371 61.379 22.953 0 42.973-12.691 53.5-31.402 10.523 18.711 30.551 31.402 53.508 31.402 22.953 0 42.973-12.691 53.508-31.402 10.523 18.711 30.543 31.402 53.5 31.402 33.844 0 61.379-27.535 61.379-61.379 0-31.164-23.379-56.922-53.508-60.805l-0.007812-224.05zm-373.19 284.86c0 25.16-20.477 45.633-45.633 45.633-25.16 0-45.625-20.473-45.625-45.633s20.469-45.625 45.625-45.625c25.16 0 45.633 20.465 45.633 45.625zm70.676-410.94h177.68v47.09h-177.68zm-116.95 62.832h107.03c0.66797 0.1875 1.332 0.41797 2.0547 0.41797h193.42c0.73047 0 1.3867-0.22656 2.0547-0.41797h107.04v47.508h-411.6zm251.09 63.254v224.05c-19.602 2.5273-36.328 14.305-45.633 30.836-9.2969-16.531-26.023-28.309-45.625-30.836l-0.003906-224.05zm-99.133 330.49c-25.16 0-45.625-20.477-45.625-45.633 0-25.16 20.469-45.625 45.625-45.625 25.16 0 45.625 20.469 45.625 45.625 0 25.16-20.465 45.633-45.625 45.633zm107 0c-25.16 0-45.633-20.477-45.633-45.633 0-25.16 20.477-45.625 45.633-45.625 25.16 0 45.633 20.469 45.633 45.625 0 25.16-20.465 45.633-45.633 45.633zm152.64-45.633c0 25.16-20.477 45.633-45.633 45.633-25.16 0-45.625-20.477-45.625-45.633 0-25.16 20.469-45.625 45.625-45.625s45.633 20.465 45.633 45.625zm-53.508-60.812c-19.602 2.5273-36.328 14.305-45.625 30.836-9.3047-16.531-26.023-28.309-45.633-30.836l-0.003907-224.04h91.262z"></path>

      </g>
      </svg>