<svg xmlns="http://www.w3.org/2000/svg" fill="none" viewBox="0 0 24 24" height="24" width="24">
  <g id="Thread-Unread">
    <path id="Union" fill="#ffffff" d="M6.08594 3.11426c0.7128 -0.11254 1.48724 0.04489 2.12109 0.67871 0.49977 0.49977 0.64643 1.12636 0.60547 1.71484 -0.03841 0.55172 -0.24078 1.10538 -0.47559 1.60645 -0.4627 0.98735 -1.24583 2.14678 -1.87597 3.16794 -0.67445 1.093 -1.19987 2.0641 -1.37598 2.875 -0.0842 0.388 -0.07273 0.6768 -0.00488 0.8946 0.06283 0.2016 0.19618 0.417 0.50097 0.6347l0.10743 0.0723c0.24176 0.1507 0.41849 0.1825 0.5459 0.1807 0.15536 -0.0024 0.35359 -0.0576 0.61718 -0.2295 0.57338 -0.3742 1.17571 -1.1015 1.91699 -2.0684 0.69093 -0.9012 1.49075 -1.9922 2.37795 -2.80176 0.8971 -0.81873 2.0545 -1.5099 3.4775 -1.33203 1.8262 0.22827 2.9239 1.41911 3.4326 2.86429 0.1509 0.4286 0.2514 0.8831 0.3106 1.3496 0.8327 -0.1418 1.7143 -0.2217 2.6328 -0.2217v2c-0.9347 0 -1.8131 0.0923 -2.6201 0.251 -0.0403 0.3925 -0.1026 0.7808 -0.1846 1.1572 -0.3209 1.4734 -0.9688 2.9326 -1.8887 3.8779 -0.466 0.4789 -1.0525 0.8761 -1.749 1.0118 -0.7235 0.1408 -1.4493 -0.0239 -2.1123 -0.4659 -0.9791 -0.6528 -1.4509 -1.6318 -1.2627 -2.7187 0.1697 -0.9802 0.846 -1.8661 1.7041 -2.5762 0.8922 -0.7383 2.0962 -1.3848 3.5205 -1.8408 -0.0368 -0.4199 -0.1149 -0.8126 -0.2373 -1.1602 -0.3115 -0.8847 -0.8702 -1.4284 -1.7939 -1.5439 -0.5769 -0.0721 -1.1697 0.1752 -1.8819 0.8252 -0.722 0.659 -1.3913 1.5675 -2.1377 2.541 -0.69611 0.908 -1.50014 1.9318 -2.41109 2.5264 -0.47831 0.3121 -1.04218 0.5452 -1.68164 0.5547 -0.56817 0.0083 -1.11309 -0.1609 -1.62695 -0.4795l-0.21777 -0.1455c-0.62202 -0.4443 -1.04327 -1.0077 -1.24903 -1.668 -0.20061 -0.6442 -0.17167 -1.3021 -0.03906 -1.9131 0.25767 -1.1871 0.96413 -2.4252 1.62793 -3.50098 0.70827 -1.14781 1.36977 -2.11792 1.76758 -2.9668 0.19528 -0.41675 0.27783 -0.70775 0.29101 -0.89648 0.01059 -0.15205 -0.02419 -0.16189 -0.02441 -0.16211 -0.11609 -0.11607 -0.21691 -0.14518 -0.39453 -0.11719 -0.23097 0.03647 -0.53893 0.17578 -0.8916 0.41993 -0.33967 0.23515 -0.65239 0.51859 -0.88575 0.75195 -0.11484 0.11484 -0.206 0.2139 -0.26757 0.28223 -0.03068 0.03404 -0.05389 0.06039 -0.06836 0.07714 -0.00717 0.00829 -0.01281 0.01426 -0.01563 0.01758l-0.00195 0.00293 -1.53516 -1.28222 0.00098 -0.00196c0.00074 -0.00088 0.0019 -0.00171 0.00293 -0.00293 0.00209 -0.00249 0.00456 -0.00593 0.00781 -0.00976 0.00671 -0.00792 0.01592 -0.01901 0.02734 -0.03223 0.0228 -0.02637 0.0553 -0.06258 0.09571 -0.10742 0.081 -0.08988 0.19688 -0.21446 0.33984 -0.35742 0.28225 -0.28225 0.68835 -0.65511 1.16113 -0.98243 0.4597 -0.31825 1.05826 -0.64677 1.71778 -0.75097M16.2607 15.374c-0.8579 0.3464 -1.5695 0.7655 -2.0996 1.2041 -0.6752 0.5589 -0.9526 1.0581 -1.0078 1.376 -0.0365 0.2111 -0.0041 0.4435 0.4014 0.7139 0.2744 0.1829 0.4707 0.1962 0.6211 0.167 0.1774 -0.0347 0.4174 -0.1558 0.6972 -0.4434 0.5722 -0.5879 1.0953 -1.6562 1.3682 -2.9092 0.0078 -0.0359 0.0122 -0.0725 0.0195 -0.1084M20 1c1.6569 0 3 1.34315 3 3s-1.3431 3 -3 3 -3 -1.34315 -3 -3 1.3431 -3 3 -3" stroke-width="1"></path>
  </g>
</svg>