<svg id="svg" fill="#ffffff" stroke="#ffffff" width="24" height="24" version="1.1" viewBox="144 144 512 512" xmlns="http://www.w3.org/2000/svg">
    <g id="IconSvg_bgCarrier" stroke-width="0"></g>
    <g id="IconSvg_tracerCarrier" stroke-linecap="round" stroke-linejoin="round" stroke="#CCCCCC" stroke-width="0">
      <path xmlns="http://www.w3.org/2000/svg" d="m525.95 242.56h-62.973v-47.234c0-4.1758-1.6602-8.1797-4.6133-11.133-2.9531-2.9492-6.957-4.6094-11.133-4.6094h-94.465c-4.1758 0-8.1797 1.6602-11.133 4.6094-2.9531 2.9531-4.6094 6.957-4.6094 11.133v47.234h-62.977c-4.1758 0-8.1797 1.6562-11.133 4.6094-2.9531 2.9531-4.6133 6.957-4.6133 11.133v346.37c0 4.1758 1.6602 8.1797 4.6133 11.133 2.9531 2.9531 6.957 4.6094 11.133 4.6094h251.9c4.1758 0 8.1836-1.6562 11.133-4.6094 2.9531-2.9531 4.6133-6.957 4.6133-11.133v-346.37c0-4.1758-1.6602-8.1797-4.6133-11.133-2.9492-2.9531-6.957-4.6094-11.133-4.6094zm-157.44-31.488h62.977v31.488h-62.977zm141.7 62.977v125.95h-220.42v-125.95zm0 188.93h-220.42v-31.488h220.42zm-220.42 125.95v-94.465h220.42v94.465zm62.977-251.91v0.003907c0-4.1758 1.6602-8.1797 4.6133-11.133s6.957-4.6133 11.133-4.6133h15.742v-15.742c0-5.625 3-10.824 7.8711-13.637s10.875-2.8125 15.746 0 7.8711 8.0117 7.8711 13.637v15.742h15.746c5.625 0 10.82 3 13.633 7.8711 2.8125 4.875 2.8125 10.875 0 15.746-2.8125 4.8711-8.0078 7.8711-13.633 7.8711h-15.746v15.746c0 5.625-3 10.82-7.8711 13.633s-10.875 2.8125-15.746 0-7.8711-8.0078-7.8711-13.633v-15.746h-15.742c-4.1758 0-8.1797-1.6562-11.133-4.6094s-4.6133-6.957-4.6133-11.133zm94.465 204.67v0.003906c0 4.1758-1.6602 8.1797-4.6094 11.133-2.9531 2.9531-6.957 4.6094-11.133 4.6094h-62.977c-5.625 0-10.824-3-13.637-7.8711s-2.8125-10.871 0-15.742c2.8125-4.8711 8.0117-7.875 13.637-7.875h62.977c4.1758 0 8.1797 1.6602 11.133 4.6133 2.9492 2.9531 4.6094 6.957 4.6094 11.133z"></path>

      </g>
     <g id="IconSvg_iconCarrier">
      <path xmlns="http://www.w3.org/2000/svg" d="m525.95 242.56h-62.973v-47.234c0-4.1758-1.6602-8.1797-4.6133-11.133-2.9531-2.9492-6.957-4.6094-11.133-4.6094h-94.465c-4.1758 0-8.1797 1.6602-11.133 4.6094-2.9531 2.9531-4.6094 6.957-4.6094 11.133v47.234h-62.977c-4.1758 0-8.1797 1.6562-11.133 4.6094-2.9531 2.9531-4.6133 6.957-4.6133 11.133v346.37c0 4.1758 1.6602 8.1797 4.6133 11.133 2.9531 2.9531 6.957 4.6094 11.133 4.6094h251.9c4.1758 0 8.1836-1.6562 11.133-4.6094 2.9531-2.9531 4.6133-6.957 4.6133-11.133v-346.37c0-4.1758-1.6602-8.1797-4.6133-11.133-2.9492-2.9531-6.957-4.6094-11.133-4.6094zm-157.44-31.488h62.977v31.488h-62.977zm141.7 62.977v125.95h-220.42v-125.95zm0 188.93h-220.42v-31.488h220.42zm-220.42 125.95v-94.465h220.42v94.465zm62.977-251.91v0.003907c0-4.1758 1.6602-8.1797 4.6133-11.133s6.957-4.6133 11.133-4.6133h15.742v-15.742c0-5.625 3-10.824 7.8711-13.637s10.875-2.8125 15.746 0 7.8711 8.0117 7.8711 13.637v15.742h15.746c5.625 0 10.82 3 13.633 7.8711 2.8125 4.875 2.8125 10.875 0 15.746-2.8125 4.8711-8.0078 7.8711-13.633 7.8711h-15.746v15.746c0 5.625-3 10.82-7.8711 13.633s-10.875 2.8125-15.746 0-7.8711-8.0078-7.8711-13.633v-15.746h-15.742c-4.1758 0-8.1797-1.6562-11.133-4.6094s-4.6133-6.957-4.6133-11.133zm94.465 204.67v0.003906c0 4.1758-1.6602 8.1797-4.6094 11.133-2.9531 2.9531-6.957 4.6094-11.133 4.6094h-62.977c-5.625 0-10.824-3-13.637-7.8711s-2.8125-10.871 0-15.742c2.8125-4.8711 8.0117-7.875 13.637-7.875h62.977c4.1758 0 8.1797 1.6602 11.133 4.6133 2.9492 2.9531 4.6094 6.957 4.6094 11.133z"></path>

      </g>
      </svg>