<svg viewBox="0 0 16 16" fill="none" xmlns="http://www.w3.org/2000/svg" id="Scaling-Right--Streamline-Unicons" height="16" width="16">
  <desc>
    Scaling Right Streamline Icon: https://streamlinehq.com
  </desc>
  <path d="M15.777266666666666 0.6460666666666666c-0.07953333333333333 -0.19153333333333333 -0.2318 -0.3438 -0.42333333333333334 -0.42333333333333334 -0.09426666666666667 -0.0402 -0.19546666666666668 -0.06146666666666667 -0.29793333333333333 -0.06273333333333334H11.919999999999998c-0.20793333333333333 0 -0.4073333333333333 0.08259999999999999 -0.5543333333333333 0.22959999999999997 -0.147 0.14706666666666665 -0.22966666666666663 0.3464666666666667 -0.22966666666666663 0.5544s0.08266666666666667 0.4073333333333333 0.22966666666666663 0.5544c0.147 0.147 0.34639999999999993 0.22959999999999997 0.5543333333333333 0.22959999999999997h1.2465333333333333L8 6.8945333333333325 6.337933333333333 5.224666666666666c-0.14766666666666667 -0.14766666666666667 -0.34786666666666666 -0.23059999999999997 -0.5566666666666666 -0.23059999999999997s-0.40900000000000003 0.08293333333333333 -0.5566 0.23059999999999997c-0.14766666666666667 0.1476 -0.23059999999999997 0.34786666666666666 -0.23059999999999997 0.5566s0.08293333333333333 0.40900000000000003 0.23059999999999997 0.5566666666666666L6.8945333333333325 8 1.728 13.166533333333334V11.919999999999998c0 -0.20793333333333333 -0.08259999999999999 -0.4073333333333333 -0.22959999999999997 -0.5543333333333333 -0.14706666666666665 -0.147 -0.3464666666666667 -0.22966666666666663 -0.5544 -0.22966666666666663s-0.4073333333333333 0.08266666666666667 -0.5544 0.22966666666666663C0.24259999999999998 11.512666666666664 0.15999999999999998 11.712066666666667 0.15999999999999998 11.919999999999998v3.1359999999999997c0.0012666666666666666 0.10246666666666666 0.02253333333333333 0.20366666666666666 0.06273333333333334 0.29793333333333333 0.07953333333333333 0.19153333333333333 0.2318 0.3438 0.42333333333333334 0.42333333333333334 0.09426666666666667 0.040133333333333326 0.19546666666666668 0.06146666666666667 0.29793333333333333 0.06273333333333334H4.08c0.20793333333333333 0 0.4073333333333333 -0.08259999999999999 0.5544 -0.22959999999999997 0.147 -0.147 0.22959999999999997 -0.3464666666666667 0.22959999999999997 -0.5544 0 -0.20793333333333333 -0.08259999999999999 -0.4073333333333333 -0.22959999999999997 -0.5543333333333333 -0.14706666666666665 -0.147 -0.3464666666666667 -0.22966666666666663 -0.5544 -0.22966666666666663H2.833466666666667L8 9.105466666666667l1.6620666666666666 1.6698666666666666c0.07326666666666666 0.07273333333333333 0.1602 0.13019999999999998 0.25566666666666665 0.16920000000000002 0.09546666666666666 0.039 0.1978 0.0588 0.301 0.0582 0.10313333333333333 0.0006 0.20546666666666663 -0.0192 0.301 -0.0582 0.09546666666666666 -0.039 0.1824 -0.09646666666666666 0.2556 -0.16920000000000002 0.07346666666666667 -0.07286666666666666 0.13179999999999997 -0.1596 0.17166666666666666 -0.25506666666666666 0.0398 -0.09559999999999999 0.06026666666666666 -0.19806666666666664 0.06026666666666666 -0.3015333333333333s-0.020466666666666668 -0.206 -0.06026666666666666 -0.3015333333333333c-0.03986666666666666 -0.09546666666666666 -0.09819999999999998 -0.18219999999999997 -0.17166666666666666 -0.2551333333333333L9.105466666666667 8l5.166533333333333 -5.166533333333333V4.08c0 0.20793333333333333 0.08266666666666667 0.4073333333333333 0.22966666666666663 0.5544 0.147 0.147 0.34639999999999993 0.22959999999999997 0.5543333333333333 0.22959999999999997 0.20793333333333333 0 0.4074 -0.08259999999999999 0.5544 -0.22959999999999997 0.147 -0.14706666666666665 0.22959999999999997 -0.3464666666666667 0.22959999999999997 -0.5544V0.944c-0.0012666666666666666 -0.10246666666666666 -0.0226 -0.20366666666666666 -0.06273333333333334 -0.29793333333333333Z" fill="#ffffff" stroke-width="0.6667"></path>
  <path d="M15.777266666666666 0.6460666666666666c-0.07953333333333333 -0.19153333333333333 -0.2318 -0.3438 -0.42333333333333334 -0.42333333333333334 -0.09426666666666667 -0.0402 -0.19546666666666668 -0.06146666666666667 -0.29793333333333333 -0.06273333333333334H11.919999999999998c-0.20793333333333333 0 -0.4073333333333333 0.08259999999999999 -0.5543333333333333 0.22959999999999997 -0.147 0.14706666666666665 -0.22966666666666663 0.3464666666666667 -0.22966666666666663 0.5544s0.08266666666666667 0.4073333333333333 0.22966666666666663 0.5544c0.147 0.147 0.34639999999999993 0.22959999999999997 0.5543333333333333 0.22959999999999997h1.2465333333333333L8 6.8945333333333325 6.337933333333333 5.224666666666666c-0.14766666666666667 -0.14766666666666667 -0.34786666666666666 -0.23059999999999997 -0.5566666666666666 -0.23059999999999997s-0.40900000000000003 0.08293333333333333 -0.5566 0.23059999999999997c-0.14766666666666667 0.1476 -0.23059999999999997 0.34786666666666666 -0.23059999999999997 0.5566s0.08293333333333333 0.40900000000000003 0.23059999999999997 0.5566666666666666L6.8945333333333325 8 1.728 13.166533333333334V11.919999999999998c0 -0.20793333333333333 -0.08259999999999999 -0.4073333333333333 -0.22959999999999997 -0.5543333333333333 -0.14706666666666665 -0.147 -0.3464666666666667 -0.22966666666666663 -0.5544 -0.22966666666666663s-0.4073333333333333 0.08266666666666667 -0.5544 0.22966666666666663C0.24259999999999998 11.512666666666664 0.15999999999999998 11.712066666666667 0.15999999999999998 11.919999999999998v3.1359999999999997c0.0012666666666666666 0.10246666666666666 0.02253333333333333 0.20366666666666666 0.06273333333333334 0.29793333333333333 0.07953333333333333 0.19153333333333333 0.2318 0.3438 0.42333333333333334 0.42333333333333334 0.09426666666666667 0.040133333333333326 0.19546666666666668 0.06146666666666667 0.29793333333333333 0.06273333333333334H4.08c0.20793333333333333 0 0.4073333333333333 -0.08259999999999999 0.5544 -0.22959999999999997 0.147 -0.147 0.22959999999999997 -0.3464666666666667 0.22959999999999997 -0.5544 0 -0.20793333333333333 -0.08259999999999999 -0.4073333333333333 -0.22959999999999997 -0.5543333333333333 -0.14706666666666665 -0.147 -0.3464666666666667 -0.22966666666666663 -0.5544 -0.22966666666666663H2.833466666666667L8 9.105466666666667l1.6620666666666666 1.6698666666666666c0.07326666666666666 0.07273333333333333 0.1602 0.13019999999999998 0.25566666666666665 0.16920000000000002 0.09546666666666666 0.039 0.1978 0.0588 0.301 0.0582 0.10313333333333333 0.0006 0.20546666666666663 -0.0192 0.301 -0.0582 0.09546666666666666 -0.039 0.1824 -0.09646666666666666 0.2556 -0.16920000000000002 0.07346666666666667 -0.07286666666666666 0.13179999999999997 -0.1596 0.17166666666666666 -0.25506666666666666 0.0398 -0.09559999999999999 0.06026666666666666 -0.19806666666666664 0.06026666666666666 -0.3015333333333333s-0.020466666666666668 -0.206 -0.06026666666666666 -0.3015333333333333c-0.03986666666666666 -0.09546666666666666 -0.09819999999999998 -0.18219999999999997 -0.17166666666666666 -0.2551333333333333L9.105466666666667 8l5.166533333333333 -5.166533333333333V4.08c0 0.20793333333333333 0.08266666666666667 0.4073333333333333 0.22966666666666663 0.5544 0.147 0.147 0.34639999999999993 0.22959999999999997 0.5543333333333333 0.22959999999999997 0.20793333333333333 0 0.4074 -0.08259999999999999 0.5544 -0.22959999999999997 0.147 -0.14706666666666665 0.22959999999999997 -0.3464666666666667 0.22959999999999997 -0.5544V0.944c-0.0012666666666666666 -0.10246666666666666 -0.0226 -0.20366666666666666 -0.06273333333333334 -0.29793333333333333Z" fill="#ffffff" stroke-width="0.6667"></path>

</svg>