<svg viewBox="0 0 24 24" xmlns="http://www.w3.org/2000/svg" id="Space-Rocket-Earth--Streamline-Ultimate" height="26" width="26">
  <desc>
    Space Rocket Earth Streamline Icon: https://streamlinehq.com
  </desc>
  <path d="M16.223 10.656a11.572 11.572 0 0 1 -2.475 1.061 11.572 11.572 0 0 1 1.061 -2.475 1 1 0 0 1 1.414 1.414" fill="none" stroke="#ffffff" stroke-linecap="round" stroke-linejoin="round" stroke-width="1"></path>
  <path d="M23.1 2.631c0.108 -0.253 -0.01 -0.371 -0.263 -0.262l-1.556 0.666a3.136 3.136 0 0 0 -0.813 0.551L19.051 5l-0.224 -0.075a3.552 3.552 0 0 0 -3.311 0.782l-0.354 0.353 1.415 1.414 1.414 1.414 1.414 1.412 0.353 -0.353a3.552 3.552 0 0 0 0.782 -3.311l-0.075 -0.224L21.88 5a3.132 3.132 0 0 0 0.55 -0.813Z" fill="none" stroke="#ffffff" stroke-linecap="round" stroke-linejoin="round" stroke-width="1"></path>
  <path d="M12.294 14.181c-5.027 5 -10.023 8.11 -11.187 6.946 -0.684 -0.685 0.107 -2.694 1.893 -5.256" fill="none" stroke="#ffffff" stroke-linecap="round" stroke-linejoin="round" stroke-width="1"></path>
  <path d="M17.637 12.636a7.49 7.49 0 1 1 -4.4 -5.365" fill="none" stroke="#ffffff" stroke-linecap="round" stroke-linejoin="round" stroke-width="1"></path>
</svg>