<svg xmlns="http://www.w3.org/2000/svg" viewBox="0 0 16 16" fill="none" id="Atom-2--Streamline-Majesticons" height="28" width="28">
  <desc>
    Atom 2 Streamline Icon: https://streamlinehq.com
  </desc>
  <path stroke="#ffffff" stroke-linecap="round" stroke-linejoin="round" stroke-width="1.3333" d="M12.595333333333333 5.290666666666667a5.335333333333333 5.335333333333333 0 0 1 -5.182666666666666 8.010666666666665m-4.007999999999999 -2.5919999999999996a5.335333333333333 5.335333333333333 0 0 1 5.182666666666666 -8.010666666666665"></path>
  <path fill="#ffffff" stroke="#ffffff" stroke-linecap="round" stroke-linejoin="round" stroke-width="1.3333" d="M10.828524291733332 3.285857625066667a1.3333333333333333 1.3333333333333333 0 1 0 1.8856180832 1.8856180832 1.3333333333333333 1.3333333333333333 0 1 0 -1.8856180832 -1.8856180832"></path>
  <path fill="#ffffff" stroke="#ffffff" stroke-linecap="round" stroke-linejoin="round" stroke-width="1.3333" d="M3.285857625066667 10.828524291733332a1.3333333333333333 1.3333333333333333 0 1 0 1.8856180832 1.8856180832 1.3333333333333333 1.3333333333333333 0 1 0 -1.8856180832 -1.8856180832"></path>
  <path fill="#ffffff" stroke="#ffffff" stroke-linecap="round" stroke-linejoin="round" stroke-width="1.3333" d="M7.0571909584 7.0571909584a1.3333333333333333 1.3333333333333333 0 1 0 1.8856180832 1.8856180832 1.3333333333333333 1.3333333333333333 0 1 0 -1.8856180832 -1.8856180832"></path>
</svg>