<svg xmlns="http://www.w3.org/2000/svg" fill="none" viewBox="-0.835 -0.835 40 40" id="Telegram-Logo-1--Streamline-Logos" height="40" width="40">
                            <desc>
                              Telegram Logo 1 Streamline Icon: https://streamlinehq.com
                            </desc>
                            <path stroke="#ffffff" stroke-linecap="round" stroke-linejoin="round" d="M8.215396666666667 18.270633333333333a0.40725625000000004 0.40725625000000004 0 0 0 -0.2587275 0.37531458333333334c0 0.1629025 0.10700458333333335 0.3162225 0.2587275 0.37371750000000004l4.770487916666667 1.7408208333333335 9.828450833333333 -5.07393375a0.24595083333333334 0.24595083333333334 0 0 1 0.30344583333333336 0.07985416666666667 0.24595083333333334 0.24595083333333334 0 0 1 -0.03513583333333333 0.31143125000000005l-7.054317083333333 6.2190425000000005 7.851261666666668 5.6824225c0.10700458333333335 0.07666 0.25074208333333337 0.09582500000000001 0.37371750000000004 0.05110666666666667a0.4056591666666667 0.4056591666666667 0 0 0 0.249145 -0.28268375L28.428083333333337 11.237078333333333a0.4056591666666667 0.4056591666666667 0 0 0 -0.1245725 -0.3928825 0.4056591666666667 0.4056591666666667 0 0 0 -0.4056591666666667 -0.07346583333333334L8.215396666666667 18.270633333333333Z" stroke-width="1.67"></path>
                            <path stroke="#ffffff" stroke-linecap="round" stroke-linejoin="round" d="m12.985884583333334 20.762083333333333 1.2281570833333335 6.255775416666666c0.03833 0.17887333333333336 0.20762083333333334 0.3162225 0.38968833333333336 0.3162225a0.40885333333333335 0.40885333333333335 0 0 0 0.39128541666666666 -0.3162225l1.0269245833333334 -4.720978333333333" stroke-width="1.67"></path>
                            <path stroke="#ffffff" stroke-linecap="round" stroke-linejoin="round" d="m19.01008291666667 24.460928333333335 -4.152416666666667 2.791701666666667" stroke-width="1.67"></path>
                            <path stroke="#ffffff" stroke-linejoin="round" d="M2.395625 19.165a16.769375 16.769375 0 1 0 33.53875 0 16.769375 16.769375 0 1 0 -33.53875 0" stroke-width="1.67"></path>
                          </svg>