 <svg viewBox="0 0 40 40" fill="none" xmlns="http://www.w3.org/2000/svg" id="Vk-Alt--Streamline-Unicons-Thinline" height="40" width="40">
                            <desc>
                              Vk Alt Streamline Icon: https://streamlinehq.com
                            </desc>
                            <path d="M25.625 23.112000000000002c-0.7333333333333334 -0.7876666666666667 -1.6113333333333333 -1.427 -2.5861666666666667 -1.8828333333333334 2.8006666666666664 -1.7263333333333335 4.7908333333333335 -4.504666666666667 5.524 -7.711916666666667 0.10166666666666667 -0.4485 -0.1796666666666667 -0.8944666666666667 -0.6283333333333334 -0.9960833333333334 -0.4485 -0.10163333333333334 -0.8943333333333333 0.17973333333333336 -0.9960000000000001 0.6282500000000001 -0.7508333333333334 3.2980333333333336 -3.0298333333333334 6.0400833333333335 -6.135000000000001 7.381083333333334 -0.18016666666666667 -0.03016666666666667 -0.36400000000000005 -0.039 -0.5463333333333333 -0.05733333333333333V13.336683333333335c-0.004666666666666667 -0.07323333333333333 -0.01916666666666667 -0.14556666666666668 -0.043333333333333335 -0.21483333333333332 -0.005 -0.03621666666666667 -0.012166666666666668 -0.07213333333333334 -0.021666666666666667 -0.10743333333333334 -0.039 -0.08808333333333333 -0.09300000000000001 -0.16875 -0.1595 -0.2383333333333333 -0.007333333333333334 -0.007933333333333334 -0.0105 -0.019016666666666668 -0.018000000000000002 -0.026650000000000004 -0.06 -0.05513333333333333 -0.12783333333333335 -0.10121666666666666 -0.2011666666666667 -0.13671666666666668 -0.022666666666666665 -0.012316666666666667 -0.03966666666666667 -0.032766666666666666 -0.0635 -0.04293333333333334 -0.056 -0.0176 -0.11349999999999999 -0.029500000000000002 -0.17183333333333334 -0.035300000000000005 -0.04933333333333334 -0.015250000000000001 -0.09983333333333334 -0.025633333333333334 -0.15116666666666667 -0.031133333333333332L18.33666666666667 12.5H18.333333333333336c-0.4601666666666667 -0.0009166666666666668 -0.834 0.3714 -0.8350000000000001 0.8317000000000001 -0.0008333333333333334 0.46021666666666666 0.3715 0.8340500000000001 0.8316666666666667 0.8349666666666666l0.25383333333333336 0.0007166666666666667V23.26666666666667c0 0.0115 0.006 0.021 0.0065 0.03233333333333334v1.6636666666666666c-3.547916666666667 -3.0076666666666667 -5.91425 -7.176166666666667 -6.6779 -11.764316666666666 -0.08453333333333334 -0.44881666666666664 -0.5085166666666667 -0.7506333333333334 -0.9602833333333333 -0.6836000000000001 -0.45370000000000005 0.0767 -0.7595833333333334 0.5063833333333333 -0.6836000000000001 0.9602833333333333 0.9381166666666667 5.5888 4.055083333333334 10.577133333333334 8.66695 13.870466666666665 0.015166666666666669 0.010833333333333334 0.035500000000000004 0.006666666666666667 0.05116666666666667 0.0165 0.129 0.08833333333333333 0.2808333333333334 0.13733333333333334 0.43716666666666665 0.14133333333333334 0.12266666666666667 -0.0015 0.24350000000000002 -0.03066666666666667 0.35350000000000004 -0.08499999999999999l0.025666666666666667 -0.0061666666666666675c0.018333333333333333 -0.009500000000000001 0.026333333333333337 -0.03 0.043833333333333335 -0.04066666666666667 0.09533333333333334 -0.05783333333333334 0.17783333333333334 -0.13433333333333336 0.2425 -0.22516666666666668 0.021 -0.027 0.04 -0.05533333333333334 0.05733333333333333 -0.08483333333333334 0.0695 -0.11900000000000001 0.10750000000000001 -0.2536666666666667 0.1105 -0.3915v-4.5655c1.5891666666666668 0.19883333333333333 3.0565 0.9548333333333333 4.140666666666667 2.1338333333333335l2.7456666666666667 2.994666666666667c0.15766666666666668 0.17233333333333334 0.3803333333333333 0.27033333333333337 0.6136666666666667 0.27033333333333337 0.20883333333333334 0.0008333333333333334 0.4101666666666667 -0.07766666666666668 0.5631666666666667 -0.21966666666666668 0.33866666666666667 -0.3111666666666667 0.3611666666666667 -0.8378333333333334 0.0505 -1.1768333333333334l-2.7458333333333336 -2.9948333333333332ZM25.122 2.5H14.895833333333334C5.0488333333333335 2.5 2.5 5.045566666666667 2.5 14.877933333333333v10.226233333333335C2.5 34.95116666666667 5.045566666666667 37.5 14.877933333333333 37.5h10.226233333333335c9.847 0 12.395833333333334 -2.5455 12.395833333333334 -12.378V14.895833333333334C37.5 5.0488333333333335 34.9545 2.5 25.122 2.5ZM35.833333333333336 25.122c0 8.909666666666666 -1.805 10.711333333333334 -10.729166666666668 10.711333333333334H14.877933333333333C5.968416666666666 35.833333333333336 4.166666666666667 34.028333333333336 4.166666666666667 25.104166666666668V14.877933333333333C4.166666666666667 5.968416666666666 5.971683333333333 4.166666666666667 14.895833333333334 4.166666666666667h10.226166666666668C34.031666666666666 4.166666666666667 35.833333333333336 5.971683333333333 35.833333333333336 14.895833333333334v10.226166666666668Z" fill="#ffffff" stroke-width="1.6667"></path>
                          </svg>