<svg xmlns="http://www.w3.org/2000/svg" viewBox="0 0 16 16" id="Weight-Hanging--Streamline-Font-Awesome" height="16" width="16">
  <desc>
    Weight Hanging Streamline Icon: https://streamlinehq.com
  </desc>
<!--! Font Awesome Free 6.5.2 by @fontawesome - https://fontawesome.com License - https://fontawesome.com/license/free (Icons: CC BY 4.0, Fonts: SIL OFL 1.1, Code: MIT License) Copyright 2024 Fonticons, Inc.-->
  <path d="M7 3a1 1 0 1 1 2 0 1 1 0 1 1 -2 0zm3.828125 1c0.109375 -0.3125 0.171875 -0.65 0.171875 -1 0 -1.65625 -1.34375 -3 -3 -3s-3 1.34375 -3 3c0 0.35 0.059375 0.6875 0.171875 1H3.75c-0.6875 0 -1.2875 0.46875 -1.45625 1.1375l-2.25 9c-0.1125 0.446875 -0.0125 0.921875 0.271875 1.2875S1.0375 16 1.5 16h13c0.4625 0 0.896875 -0.2125 1.18125 -0.578125s0.384375 -0.8375 0.271875 -1.2875l-2.25 -9C13.5375 4.46875 12.9375 4 12.25 4h-1.421875z" fill="#ffffff" stroke-width="0.0313"></path>
</svg>